<svg width="18" height="12" viewBox="0 0 18 12" fill="none" xmlns="http://www.w3.org/2000/svg">
<path d="M8.85681 5.6301L14.4753 11.2484C14.7605 11.5339 15.1093 11.6763 15.5217 11.6763C15.934 11.6763 16.2827 11.5338 16.5678 11.2484L17.435 10.3815C17.7201 10.0965 17.8626 9.74762 17.8626 9.33541C17.8626 8.9232 17.7201 8.57452 17.435 8.28905L9.90896 0.75157C9.62378 0.466344 9.27502 0.32373 8.8626 0.32373C8.45019 0.32373 8.10172 0.466303 7.81641 0.75157L0.290384 8.28902C0.00519763 8.57448 -0.137375 8.92312 -0.137375 9.33537C-0.137375 9.74762 0.00519763 10.0964 0.290384 10.3814L1.1574 11.2483C1.44243 11.5338 1.78924 11.6762 2.19793 11.6762C2.60629 11.6762 2.95699 11.5338 3.24983 11.2483L8.85681 5.6301Z" fill="white"/>
</svg>

