<svg width="24" height="24" viewBox="0 0 24 24" fill="none" xmlns="http://www.w3.org/2000/svg">
<path d="M22 12.0001C22 9.3479 20.9464 6.80436 19.0711 4.92899C17.1957 3.05363 14.6522 2.00006 12 2.00006C9.34784 2.00006 6.8043 3.05363 4.92893 4.92899C3.05357 6.80436 2 9.3479 2 12.0001C2 14.6522 3.05357 17.1958 4.92893 19.0711C6.8043 20.9465 9.34784 22.0001 12 22.0001C14.6522 22.0001 17.1957 20.9465 19.0711 19.0711C20.9464 17.1958 22 14.6522 22 12.0001V12.0001Z" stroke="white" stroke-width="1.5" stroke-linecap="round" stroke-linejoin="round"/>
<path d="M8 12.0001L12 16.0001L16 12.0001" stroke="white" stroke-width="1.5" stroke-linecap="round" stroke-linejoin="round"/>
<path d="M12 8.00006V16.0001" stroke="white" stroke-width="1.5" stroke-linecap="round" stroke-linejoin="round"/>
</svg>
