<svg width="18" height="12" viewBox="0 0 18 12" fill="none" xmlns="http://www.w3.org/2000/svg">
<path d="M8.86844 6.3699L3.24991 0.751619C2.96473 0.466149 2.61593 0.323739 2.20356 0.323739C1.79122 0.323739 1.44259 0.46619 1.15744 0.751619L0.290262 1.61851C0.00519785 1.90354 -0.137375 2.25238 -0.137375 2.66459C-0.137375 3.0768 0.00519785 3.42548 0.290262 3.71095L7.81629 11.2484C8.10147 11.5337 8.45023 11.6763 8.86265 11.6763C9.27506 11.6763 9.62353 11.5337 9.90884 11.2484L17.4349 3.71098C17.7201 3.42552 17.8626 3.07688 17.8626 2.66463C17.8626 2.25238 17.7201 1.90358 17.4349 1.61856L16.5678 0.75166C16.2828 0.46619 15.936 0.323779 15.5273 0.323779C15.119 0.323779 14.7683 0.466231 14.4754 0.75166L8.86844 6.3699Z" fill="white"/>
</svg>
