<svg width="19" height="26" viewBox="0 0 19 26" fill="none" xmlns="http://www.w3.org/2000/svg">
<path d="M9.00581 20.3698L3.38729 14.7516C3.1021 14.4661 2.7533 14.3237 2.34093 14.3237C1.9286 14.3237 1.57996 14.4661 1.29482 14.7516L0.427637 15.6185C0.142573 15.9035 0 16.2523 0 16.6645C0 17.0767 0.142573 17.4254 0.427637 17.7109L7.95366 25.2484C8.23885 25.5336 8.58761 25.6762 9.00002 25.6762C9.41243 25.6762 9.76091 25.5336 10.0462 25.2484L17.5722 17.7109C17.8574 17.4255 18 17.0768 18 16.6646C18 16.2523 17.8574 15.9035 17.5722 15.6185L16.7052 14.7516C16.4202 14.4661 16.0734 14.3237 15.6647 14.3237C15.2563 14.3237 14.9056 14.4662 14.6128 14.7516L9.00581 20.3698Z" fill="white"/>
<path d="M9.13156 5.30637L14.7501 10.9247C15.0353 11.2101 15.3841 11.3525 15.7964 11.3525C16.2088 11.3525 16.5574 11.2101 16.8426 10.9247L17.7097 10.0578C17.9948 9.77273 18.1374 9.42389 18.1374 9.01168C18.1374 8.59947 17.9948 8.25079 17.7097 7.96532L10.1837 0.42784C9.89853 0.142613 9.54977 0 9.13735 0C8.72494 0 8.37647 0.142573 8.09116 0.42784L0.565133 7.96528C0.279947 8.25075 0.137375 8.59939 0.137375 9.01164C0.137375 9.42389 0.279947 9.77269 0.565133 10.0577L1.43215 10.9246C1.71718 11.2101 2.06399 11.3525 2.47268 11.3525C2.88104 11.3525 3.23174 11.21 3.52458 10.9246L9.13156 5.30637Z" fill="white"/>
</svg>
